<svg width="41" height="34" viewBox="0 0 41 34" fill="none" xmlns="http://www.w3.org/2000/svg">
<path fill-rule="evenodd" clip-rule="evenodd" d="M33.634 0H6.72679C4.49784 0 2.69073 1.80686 2.69073 4.03581V21.5256C2.69073 21.9973 2.77168 22.4502 2.92045 22.871H2.69073V25.5617H6.72679V4.03581H33.634V25.5617H37.6702V22.871H37.4404C37.5892 22.4502 37.6702 21.9973 37.6702 21.5256V4.03581C37.6702 1.80686 35.863 0 33.634 0ZM2.69073 28.2519H37.6702C39.1561 28.2519 40.3609 29.4571 40.3609 30.9432C40.3609 32.4291 37.8108 33.6338 36.3248 33.6338H4.03611C2.55003 33.6338 0 32.4291 0 30.9432C0 29.4571 1.20477 28.2519 2.69073 28.2519ZM24.2166 30.9432H16.1444C15.4013 30.9432 14.7991 31.2443 14.7991 31.6156C14.7991 31.987 15.4013 32.2883 16.1444 32.2883H24.2166C24.9596 32.2883 25.562 31.987 25.562 31.6156C25.562 31.2443 24.9596 30.9432 24.2166 30.9432ZM12.147 16.7839L14.0412 14.8807C14.5642 14.3556 15.4122 14.3556 15.9353 14.8807L18.4182 17.375L26.4205 9.33698C26.9436 8.81125 27.7917 8.81125 28.3148 9.33698L30.209 11.2391C30.7319 11.7645 30.7319 12.6167 30.209 13.142L19.7909 23.6063C19.3431 24.0562 18.6569 24.1208 18.1405 23.8002C17.7031 23.9046 17.2236 23.7854 16.8824 23.4427L12.147 18.6864C11.6239 18.1611 11.6239 17.3096 12.147 16.7839Z" fill="#FED136"/>
</svg>
